<svg width="52" height="52" viewBox="0 0 52 52" fill="none" xmlns="http://www.w3.org/2000/svg">
<g clip-path="url(#clip0_244_657)">
<mask id="mask0_244_657" style="mask-type:luminance" maskUnits="userSpaceOnUse" x="0" y="0" width="52" height="52">
<path d="M51.8937 0H0V51.687H51.8937V0Z" fill="white"/>
</mask>
<g mask="url(#mask0_244_657)">
<path fill-rule="evenodd" clip-rule="evenodd" d="M50.2877 27.5507C50.7736 27.5507 51.167 27.9441 51.167 28.4301C51.167 28.9161 50.7736 29.3096 50.2877 29.3096C49.8016 29.3096 49.4082 28.9161 49.4082 28.4301C49.4082 27.9441 49.8016 27.5507 50.2877 27.5507ZM1.66877 27.5507C2.15473 27.5507 2.54823 27.9441 2.54823 28.4301C2.54823 28.9161 2.15473 29.3096 1.66877 29.3096C1.1828 29.3096 0.789307 28.9161 0.789307 28.4301C0.789307 27.9441 1.1828 27.5507 1.66877 27.5507Z" fill="#FF6600"/>
<path d="M48.4605 22.0567L51.5649 21.6614L51.632 22.1854L50.2865 22.3558L50.4823 23.8972L51.8279 23.7267L51.895 24.2508L48.7905 24.6461L48.7234 24.122L49.9946 23.9606L49.7988 22.4194L48.5276 22.5807L48.4605 22.0567ZM48.5421 20.1092C48.591 20.285 48.6636 20.4265 48.7579 20.5371C48.8522 20.6459 48.9846 20.7529 49.1532 20.8526L48.9102 21.2752C48.466 21.0576 48.1794 20.7202 48.0507 20.2652C47.9219 19.81 47.96 19.3911 48.1685 19.0084C48.3771 18.6259 48.7034 18.3702 49.1514 18.2432C49.5993 18.1163 50.0164 18.1635 50.4008 18.3846C50.787 18.6059 51.0445 18.9505 51.1787 19.4164C51.3111 19.8843 51.2494 20.3214 50.9937 20.733L50.5476 20.51C50.6456 20.3268 50.7018 20.1635 50.7217 20.0203C50.7398 19.8771 50.7254 19.7193 50.6746 19.5471C50.5875 19.2424 50.4171 19.0158 50.1614 18.8634C49.9057 18.7129 49.6246 18.6802 49.32 18.7673C49.0136 18.8544 48.7869 19.0302 48.64 19.2931C48.4932 19.5562 48.4586 19.83 48.5403 20.111L48.5421 20.1092ZM48.3462 16.294C48.4695 16.5659 48.5947 16.7309 48.7234 16.7908C48.8522 16.8506 49.0099 16.8379 49.1967 16.7545C49.3835 16.6693 49.4886 16.5623 49.5122 16.4299C49.5358 16.2975 49.4886 16.1017 49.3726 15.8442L49.0952 15.2331L48.0742 15.6937L48.3462 16.294ZM49.4161 17.2496C48.9447 17.4617 48.5566 17.391 48.2484 17.0356L47.5503 18.2505L47.2728 17.6394L47.9238 16.5242L47.6372 15.8913L46.678 16.3247L46.4604 15.8425L49.3128 14.5531L49.7933 15.614C49.9891 16.0492 50.058 16.3936 49.9946 16.6475C49.9329 16.9013 49.7407 17.1027 49.4161 17.2478V17.2496ZM45.7169 13.0626C45.6534 13.2729 45.688 13.4814 45.8203 13.6881C45.9527 13.8949 46.1267 14.0128 46.3462 14.0436C46.5638 14.0745 46.7941 14.0128 47.0352 13.8569L48.4932 12.9212L48.7779 13.3655L47.3 14.3119C46.921 14.555 46.5619 14.6384 46.2229 14.5604C45.8838 14.4824 45.61 14.2812 45.4014 13.9547C45.1911 13.6284 45.1221 13.2947 45.1929 12.9556C45.2636 12.6165 45.4902 12.3246 45.8692 12.0815L47.3471 11.1351L47.6318 11.5793L46.1739 12.515C45.9328 12.6691 45.7804 12.8523 45.7169 13.0626ZM42.5146 10.1776L44.881 8.12854L45.2273 8.52747L44.201 9.41599L45.2182 10.591L46.2446 9.7025L46.591 10.1014L44.2245 12.1505L43.8782 11.7515L44.8466 10.9138L43.8292 9.73877L42.861 10.5765L42.5146 10.1776ZM41.4629 8.51296C41.6007 8.63264 41.7384 8.71243 41.8782 8.75232C42.0178 8.79222 42.1845 8.80853 42.3822 8.80128L42.4112 9.28725C41.9198 9.34709 41.4955 9.22379 41.1383 8.91371C40.7811 8.60363 40.5834 8.2319 40.5472 7.7967C40.5108 7.36332 40.645 6.96982 40.9497 6.61804C41.2544 6.26626 41.6279 6.07585 42.0721 6.05047C42.5164 6.02327 42.9207 6.17015 43.2871 6.48747C43.6534 6.80481 43.842 7.20556 43.8547 7.68971L43.3596 7.74774C43.3415 7.54103 43.2997 7.37419 43.2363 7.24363C43.1729 7.11307 43.0731 6.98977 42.9389 6.87372C42.6996 6.667 42.4312 6.56908 42.1356 6.58359C41.8401 6.59809 41.5862 6.72502 41.3794 6.96439C41.171 7.20375 41.0784 7.47574 41.1002 7.77675C41.122 8.07777 41.2435 8.32438 41.4646 8.51659L41.4629 8.51296ZM40.0558 4.10659L39.8073 4.53815L38.3584 3.70584L37.945 4.42392L39.2451 5.17101L39.0113 5.57901L37.7111 4.83191L37.2941 5.55725L38.7883 6.41676L38.5398 6.84652L36.5869 5.72407L38.1463 3.01134L40.0521 4.10659H40.0558ZM35.6947 2.38031L35.341 3.16366L36.6068 3.73485L36.4055 4.17912L35.1398 3.60793L34.6085 4.78295L34.1262 4.56535L35.4155 1.713L37.3176 2.57251L37.1109 3.0204L35.6947 2.38031ZM33.7943 1.15812L34.2948 1.32676L33.292 4.29154L32.7915 4.12291L33.7943 1.15812ZM30.3581 3.50094L31.0616 0.450925L31.5767 0.570604L30.9855 3.13102L32.3781 3.45198L32.2657 3.93976L30.3581 3.49913V3.50094ZM26.6063 3.12195L26.8439 0.0012207L27.3697 0.0411138L27.1702 2.66136L28.5937 2.77017L28.5556 3.27064L26.6045 3.12195H26.6063ZM24.9833 1.94691L24.3197 0.70479L23.85 2.03396L24.9833 1.94873V1.94691ZM23.6723 2.53625L23.4131 3.27064L22.8509 3.31416L23.9879 0.0882602L24.55 0.0447404L26.1621 3.0603L25.5999 3.10382L25.2336 2.41838L23.6705 2.53625H23.6723ZM20.9161 2.12825C21.2062 2.06115 21.3948 1.97049 21.4782 1.85625C21.5617 1.74201 21.5815 1.58425 21.5344 1.3866C21.4891 1.18713 21.4039 1.06383 21.2787 1.01306C21.1537 0.964095 20.9542 0.971348 20.6767 1.03482L20.0221 1.18532L20.2742 2.27694L20.9161 2.12825ZM22.0622 1.26511C22.1781 1.76921 22.0313 2.13551 21.6233 2.36761L22.6769 3.2924L22.0223 3.44291L21.0576 2.58521L20.3811 2.74116L20.6187 3.76568L20.1038 3.88536L19.4001 0.83535L20.5353 0.574231C21.0013 0.467245 21.3513 0.469059 21.5889 0.579671C21.8264 0.690284 21.9842 0.918763 22.0639 1.26511H22.0622ZM17.2605 4.11021C17.4545 4.21358 17.6667 4.22082 17.8933 4.13016C18.1218 4.04131 18.2705 3.8908 18.343 3.68408C18.4155 3.47555 18.3992 3.238 18.294 2.97144L17.6576 1.3594L18.149 1.16537L18.7927 2.79918C18.9577 3.21806 18.9704 3.58617 18.829 3.9035C18.6876 4.22083 18.4373 4.45111 18.0764 4.59256C17.7156 4.73581 17.3747 4.73762 17.0555 4.60344C16.7364 4.46744 16.4934 4.19 16.3284 3.77112L15.6846 2.13732L16.176 1.94329L16.8125 3.55533C16.9177 3.82189 17.0682 4.00685 17.2622 4.11021H17.2605ZM14.263 3.35587L15.4688 5.71138L14.9992 5.95255L13.7934 3.59704L12.9484 4.03042L12.7289 3.60067L14.8886 2.49454L15.108 2.9243L14.263 3.35768V3.35587ZM12.4098 6.01239L11.1985 5.29069L11.4814 6.67063L12.408 6.01057L12.4098 6.01239ZM11.592 7.19467L11.7498 7.95627L11.2909 8.28267L10.6001 4.93346L11.0589 4.60706L13.9964 6.35874L13.5359 6.68513L12.8685 6.2862L11.592 7.19467ZM8.47308 6.69601L8.85569 6.33153L11.0154 8.59638L10.6001 8.99168L7.74049 8.56192L9.31627 10.2157L8.93366 10.5802L6.77398 8.31531L7.1566 7.95083L10.0851 8.38785L8.47308 6.69601ZM6.41132 11.2565C6.59628 11.0227 6.68513 10.834 6.67788 10.6926C6.67244 10.5511 6.58721 10.4169 6.42764 10.29C6.26626 10.1631 6.123 10.1196 5.99426 10.1595C5.86552 10.1994 5.71501 10.3299 5.53911 10.5529L5.12387 11.0806L6.00333 11.7715L6.40951 11.2547L6.41132 11.2565ZM6.76492 9.86571C7.1711 10.1848 7.28715 10.5638 7.1149 11.0009L8.51477 11.0589L8.09953 11.5866L6.81025 11.5248L6.38231 12.0707L7.20919 12.7199L6.88278 13.1351L4.42211 11.2022L5.14199 10.2864C5.43757 9.91104 5.71138 9.69162 5.96524 9.62997C6.21912 9.56831 6.48567 9.64629 6.76492 9.86571ZM3.80739 12.2321L4.23715 12.4805L3.40484 13.9294L4.12291 14.3428L4.87 13.0427L5.27799 13.2766L4.53091 14.5767L5.25623 14.9937L6.11575 13.4996L6.54732 13.748L5.42487 15.7009L2.71215 14.1397L3.80921 12.2339L3.80739 12.2321ZM3.39395 16.9612C3.50094 16.6892 3.5227 16.4825 3.45742 16.3429C3.39214 16.2032 3.25795 16.0945 3.05667 16.0147C2.85539 15.9349 2.68857 15.9422 2.5562 16.0346C2.42383 16.1271 2.30414 16.3066 2.19898 16.5732L2.00132 17.0736L3.16729 17.5342L3.39214 16.9631L3.39395 16.9612ZM1.75834 16.3883C1.93242 15.9458 2.14457 15.6574 2.39299 15.5214C2.64142 15.3855 2.94244 15.3873 3.29604 15.5269C3.64964 15.6665 3.86541 15.8714 3.94883 16.1435C4.03043 16.4154 3.98873 16.7654 3.82008 17.1916L3.61699 17.7083L4.47106 18.0456L4.27704 18.537L1.36484 17.3892L1.75834 16.3901V16.3883ZM2.87534 20.9832C3.07118 20.8816 3.1963 20.7112 3.2507 20.4719C3.3051 20.2343 3.26883 20.0258 3.13646 19.8481C3.0059 19.6703 2.801 19.5506 2.52174 19.4854L0.833538 19.0955L0.953218 18.5806L2.66318 18.9758C3.10201 19.0774 3.41209 19.2768 3.59342 19.5724C3.77475 19.868 3.82189 20.2053 3.73485 20.5843C3.64781 20.9633 3.45742 21.2443 3.16547 21.4311C2.87172 21.6178 2.50723 21.6596 2.06841 21.558L0.358448 21.1628L0.478126 20.6477L2.16633 21.0376C2.44559 21.1029 2.68313 21.0829 2.87716 20.9814L2.87534 20.9832ZM0.489006 23.491C0.478126 23.6452 0.498073 23.772 0.554286 23.8754C0.608686 23.9788 0.699352 24.0351 0.826285 24.0441C0.953218 24.0532 1.05295 24.0114 1.1273 23.919C1.20164 23.8265 1.2905 23.6215 1.39204 23.3079C1.49359 22.9942 1.62052 22.7602 1.77285 22.6097C1.92516 22.4575 2.13732 22.3921 2.40932 22.4139C2.68131 22.4338 2.89529 22.5553 3.04942 22.7729C3.20356 22.9905 3.26701 23.2662 3.24163 23.5999C3.20537 24.0876 3.00409 24.5082 2.63779 24.86L2.26607 24.4992C2.56345 24.2037 2.72483 23.8881 2.75203 23.549C2.76473 23.3786 2.73934 23.2425 2.67225 23.1375C2.60697 23.0323 2.51449 22.9742 2.39299 22.9652C2.27332 22.9561 2.1754 22.996 2.10105 23.0848C2.02671 23.1737 1.95418 23.3296 1.88164 23.5544C1.80911 23.7794 1.74564 23.9498 1.68943 24.0658C1.63502 24.1819 1.56612 24.2834 1.48453 24.3686C1.33039 24.5428 1.10917 24.6189 0.820845 24.5971C0.532527 24.5753 0.316741 24.4539 0.177115 24.2309C0.0374891 24.0096 -0.0223506 23.743 0.00122258 23.4348C0.0157291 23.2353 0.0646889 23.0395 0.144475 22.8491C0.224262 22.6568 0.329434 22.4954 0.459993 22.3613L0.835351 22.6732C0.744686 22.7585 0.666713 22.8799 0.601433 23.0323C0.536153 23.1863 0.498073 23.3387 0.485381 23.4928L0.489006 23.491Z" fill="white"/>
<path d="M50.8306 33.1047L50.6855 33.6306L49.4742 33.2951L47.3019 33.9225L47.4579 33.3568L49.0862 32.9053L47.9221 31.6812L48.078 31.1155L49.6193 32.7711L50.8306 33.1065V33.1047ZM48.2266 35.5563C48.35 35.2788 48.3917 35.0721 48.35 34.9343C48.3083 34.7966 48.1941 34.6841 48.0037 34.5988C47.8132 34.5136 47.6609 34.5064 47.5449 34.5771C47.4288 34.6478 47.3109 34.8147 47.1931 35.0776L46.9138 35.7014L47.9528 36.1674L48.2266 35.5563ZM48.2321 34.0966C48.7108 34.3106 48.9194 34.655 48.8578 35.1302L50.254 34.8419L49.9747 35.4657L48.6873 35.7231L48.3989 36.3668L49.3764 36.8039L49.1569 37.2934L46.2519 35.9933L46.7361 34.9126C46.9356 34.4701 47.1514 34.1854 47.3871 34.0621C47.6228 33.9388 47.904 33.9497 48.234 34.0966H48.2321ZM47.3599 38.0841L45.9347 37.9281L46.7814 39.0851L47.3599 38.0841ZM47.1007 39.522L47.5684 40.1603L47.2819 40.6572L45.2275 37.8501L45.5139 37.3533L48.972 37.7323L48.6855 38.2291L47.8985 38.1422L47.1007 39.522ZM44.067 39.4386L44.3933 39.0107L46.9265 40.94L46.5729 41.4042L43.6318 41.4314L45.4795 42.8387L45.1549 43.2665L42.6218 41.3371L42.9463 40.9093L45.9582 40.8784L44.067 39.4386ZM41.7912 42.0517L42.1629 41.6636L44.4604 43.8668L44.0887 44.2549L41.7912 42.0517ZM42.1757 43.8922C41.7059 43.3355 41.1511 43.3264 40.5128 43.865L40.1012 44.2113L41.5083 45.8778L41.9635 45.4934C42.2591 45.2449 42.424 44.9838 42.4621 44.7117C42.5002 44.4398 42.4042 44.166 42.172 43.8922H42.1757ZM40.2082 43.4732C40.6434 43.1051 41.0695 42.9293 41.4829 42.9437C41.8963 42.9583 42.2627 43.1541 42.5818 43.5331C42.901 43.9121 43.0406 44.3074 42.9989 44.7191C42.9572 45.1307 42.7033 45.535 42.2337 45.9303L41.4267 46.6121L39.374 44.1787L40.21 43.4732H40.2082ZM38.8282 46.4272C39.0839 46.264 39.2326 46.1135 39.2743 45.9757C39.316 45.8378 39.2816 45.6801 39.1692 45.506C39.0567 45.3301 38.9334 45.2394 38.7974 45.2358C38.6614 45.2303 38.471 45.3048 38.228 45.4607L37.6513 45.8269L38.2625 46.7881L38.8282 46.429V46.4272ZM39.6369 45.2122C39.9181 45.6548 39.9035 46.0573 39.5898 46.42L40.9135 46.9495L40.3369 47.3157L39.1202 46.8207L38.5236 47.1997L39.0984 48.1028L38.6451 48.391L36.9369 45.7055L37.936 45.0708C38.3459 44.8097 38.6831 44.6936 38.9479 44.7191C39.2126 44.7444 39.4411 44.9094 39.6352 45.2159L39.6369 45.2122ZM37.4156 48.4944C37.2525 48.9133 36.9551 49.2197 36.5235 49.4156C36.0919 49.6114 35.6658 49.6314 35.2414 49.4772C34.819 49.323 34.5107 49.0329 34.3166 48.605C34.1227 48.1771 34.1081 47.7545 34.2713 47.3357C34.4346 46.9168 34.7319 46.6103 35.1635 46.4145C35.5951 46.2187 36.0212 46.1987 36.4437 46.3529C36.8663 46.5069 37.1745 46.7971 37.3685 47.225C37.5625 47.653 37.577 48.0755 37.412 48.4944H37.4156ZM36.2351 46.8425C35.945 46.7264 35.6549 46.7354 35.3684 46.866C35.0801 46.9966 34.8842 47.2087 34.779 47.5025C34.674 47.7963 34.6866 48.09 34.819 48.382C34.9513 48.6739 35.1617 48.877 35.4536 48.993C35.7437 49.1091 36.0339 49.1019 36.3204 48.9713C36.6087 48.8407 36.8046 48.6286 36.9097 48.3348C37.0149 48.041 37.0022 47.7473 36.8698 47.4553C36.7374 47.1634 36.5271 46.9603 36.237 46.8443L36.2351 46.8425ZM32.5704 47.5641L32.6847 48.0573L31.0291 48.44L31.2195 49.2614L32.7065 48.9187L32.8134 49.3847L31.3265 49.7275L31.5187 50.558L33.2269 50.1644L33.3412 50.6577L31.1089 51.1727L30.3927 48.0701L32.5723 47.5678L32.5704 47.5641ZM27.6237 51.6713L27.2429 48.5107L27.776 48.4472L27.941 49.8181L29.5096 49.6295L29.3445 48.2586L29.8777 48.1934L30.2603 51.3539L29.7272 51.4193L29.5712 50.1263L28.0026 50.3149L28.1586 51.6079L27.6255 51.6713H27.6237ZM26.1621 48.9948L26.0769 51.6858L25.5402 51.6677L25.6254 48.9786L24.6607 48.9477L24.677 48.4563L27.145 48.5343L27.1287 49.0257L26.164 48.9948H26.1621ZM22.6823 49.887C22.8147 49.1707 22.4721 48.7356 21.6507 48.585L21.1229 48.4871L20.7258 50.6323L21.3133 50.7411C21.6923 50.8118 21.9988 50.7756 22.2345 50.6323C22.4702 50.489 22.6189 50.2406 22.6842 49.8889L22.6823 49.887ZM21.7594 48.0991C22.3216 48.2024 22.7259 48.42 22.9779 48.7482C23.2282 49.0782 23.3098 49.4844 23.2192 49.9723C23.1284 50.4582 22.9108 50.8172 22.5664 51.0457C22.2218 51.2761 21.7467 51.3341 21.1447 51.2216L20.1056 51.0294L20.686 47.8996L21.7612 48.0991H21.7594ZM19.7357 47.6421L20.2453 47.8125L19.2371 50.8318L18.6841 50.6468L17.7103 47.8724L16.974 50.0756L16.4645 49.9052L17.4727 46.8859L17.9823 47.0564L18.9832 49.8979L19.7357 47.6439V47.6421ZM15.5996 49.042C15.1716 49.178 14.7454 49.1381 14.323 48.9259C13.9005 48.712 13.6158 48.3929 13.4707 47.9667C13.3257 47.5406 13.3583 47.1198 13.5686 46.701C13.7807 46.2821 14.1 46.0047 14.5297 45.8687C14.9595 45.7327 15.3838 45.7726 15.8081 45.9865C16.2306 46.2005 16.5153 46.5197 16.6604 46.9458C16.8054 47.3719 16.7728 47.7926 16.5624 48.2115C16.3502 48.6304 16.0311 48.9078 15.6014 49.042H15.5996ZM16.1472 47.0854C16.0547 46.7862 15.868 46.5668 15.585 46.4254C15.3021 46.2821 15.0139 46.2621 14.7201 46.3655C14.4245 46.4689 14.2051 46.6629 14.0601 46.9476C13.915 47.2341 13.8896 47.5261 13.9821 47.8253C14.0745 48.1226 14.2614 48.3439 14.5442 48.4871C14.8253 48.6286 15.1135 48.6485 15.4091 48.547C15.7047 48.4436 15.9242 48.2496 16.0673 47.9649C16.2124 47.6783 16.2378 47.3864 16.1453 47.0891L16.1472 47.0854ZM11.6683 47.4245L11.224 47.1072L11.953 46.0845L12.107 43.8287L12.5858 44.1696L12.4535 45.8541L14.002 45.1796L14.4807 45.5206L12.3972 46.4017L11.6683 47.4245ZM11.9258 43.7779L11.5903 44.1569L10.3173 43.0326L9.75884 43.6637L10.9031 44.6737L10.5857 45.0327L9.44151 44.0227L8.87756 44.661L10.1922 45.8216L9.85675 46.2005L8.13953 44.6846L10.2466 42.2983L11.9221 43.7779H11.9258ZM6.63448 42.4325L7.21837 43.0399C7.35437 43.1831 7.4813 43.2702 7.59916 43.3028C7.71703 43.3355 7.83853 43.292 7.96183 43.1722C8.16492 42.9764 8.11052 42.7154 7.79682 42.3889L7.26008 41.8304L6.63267 42.4325H6.63448ZM7.61911 41.4859L8.09239 41.9791C8.36076 42.2602 8.59105 42.3092 8.78145 42.126C8.89207 42.0208 8.9374 41.9121 8.92108 41.7978C8.90475 41.6836 8.82679 41.5547 8.69079 41.4133L8.21389 40.9165L7.61911 41.4876V41.4859ZM6.86839 43.3935L5.90371 42.3871L8.20119 40.1839L9.05889 41.0779C9.20758 41.2338 9.3182 41.3861 9.38891 41.5348C9.45963 41.6836 9.49047 41.8159 9.47958 41.9319C9.46144 42.1513 9.37985 42.3309 9.22934 42.4741C9.04982 42.6464 8.86124 42.7171 8.6654 42.6881C8.59469 42.6754 8.54753 42.6664 8.52578 42.6573C8.50402 42.65 8.46412 42.6337 8.40972 42.612C8.51489 42.7842 8.56023 42.9583 8.5439 43.136C8.52759 43.3137 8.44599 43.4715 8.30274 43.6111C8.14316 43.7652 7.94914 43.845 7.72065 43.8541C7.4541 43.8613 7.17122 43.709 6.8702 43.3954L6.86839 43.3935ZM7.40695 39.0687L6.98082 39.3408L6.06873 37.9082L5.3579 38.3597L6.17752 39.6471L5.77496 39.9047L4.95534 38.6172L4.23727 39.0742L5.17838 40.5538L4.75225 40.8259L3.52282 38.8928L6.20835 37.1847L7.40877 39.0705L7.40695 39.0687ZM2.60709 37.1466L2.35865 36.599L4.73049 34.1201L4.97892 34.6678L3.21636 36.541L5.78584 36.4521L6.03427 36.9997L2.60709 37.1466ZM4.44217 33.3531L4.638 33.8536L1.67323 35.0123L1.47738 34.5119L4.44217 33.3531ZM0.724854 32.0656L3.79119 31.2079L3.93625 31.7248L1.36133 32.4446L1.75301 33.8445L1.26159 33.9824L0.724854 32.0656Z" fill="white"/>
<mask id="mask1_244_657" style="mask-type:luminance" maskUnits="userSpaceOnUse" x="6" y="4" width="39" height="44">
<path d="M25.6429 6.58483C36.1982 6.63923 44.7391 15.2127 44.7391 25.7825C44.7391 36.3524 36.9072 44.1932 26.9757 44.9275C25.8369 45.9956 24.5168 46.8243 23.1061 47.2903C24.0091 46.614 24.6946 45.8306 25.2095 44.9765C14.7593 44.7988 6.34186 36.2744 6.34186 25.7825C6.34186 15.2905 14.4057 7.12701 24.5458 6.60841C24.932 5.44788 25.496 4.41972 26.2557 4.13684C25.7462 5.01811 25.5776 5.82505 25.641 6.58483" fill="white"/>
</mask>
<g mask="url(#mask1_244_657)">
<path d="M44.7391 4.13342H6.34186V47.287H44.7391V4.13342Z" fill="url(#paint0_linear_244_657)"/>
</g>
<path fill-rule="evenodd" clip-rule="evenodd" d="M25.352 21.4473C26.643 21.4473 27.6894 22.7403 27.6894 24.3342C27.6894 25.9281 26.643 27.2209 25.352 27.2209C24.0608 27.2209 23.0145 25.9281 23.0145 24.3342C23.0145 22.7403 24.0608 21.4473 25.352 21.4473ZM23.7308 6.65425C23.9502 6.63612 24.1697 6.61981 24.3927 6.60711C24.5196 6.22269 24.6683 5.85276 24.8352 5.51911L24.8805 5.50098C21.8269 10.7814 30.7991 13.4415 29.8527 19.4255C29.1853 23.7032 31.9089 23.1301 32.8355 20.5824C33.2689 25.6688 28.8081 28.5701 24.6611 28.9455C20.6083 29.3117 16.851 27.2645 18.2474 22.4863C18.9564 20.0583 21.544 17.4018 19.8993 16.0128C21.5639 16.0872 21.1849 17.8425 21.7453 19.0392C23.1687 16.9993 21.1504 14.6746 21.3408 12.611C21.7834 13.7933 22.4488 14.3028 23.1778 13.7698C22.6718 12.5603 22.4035 11.601 22.6374 10.1304C22.8187 8.99888 23.1778 7.62257 23.7308 6.65063V6.65425ZM24.8877 45.2436C24.9458 45.1548 25.002 45.0659 25.0564 44.977H25.0273C26.5234 41.7674 22.4742 37.7962 19.9627 36.2894C17.0741 34.554 15.3352 32.7806 14.7766 30.6554C14.249 28.6445 14.7766 26.3198 16.3886 23.413C15.0813 27.8846 21.165 29.6308 23.8559 32.7117C26.8443 36.1316 28.1046 42.3314 24.5124 45.784C24.6574 45.6081 24.779 45.4268 24.8841 45.2454L24.8877 45.2436ZM25.0817 46.2754L24.933 46.3678L24.9131 46.3715C24.9711 46.3406 25.0255 46.3081 25.0817 46.2754ZM29.0638 44.627C28.3403 44.7667 27.6005 44.8682 26.8497 44.9244C29.9107 41.8636 30.0213 36.9676 30.1971 33.165C30.3857 29.0996 34.2408 21.6758 36.5002 21.46C34.8701 22.6368 32.6978 27.939 34.1411 32.1369C35.735 36.7718 33.0513 41.927 29.0638 44.627Z" fill="white"/>
</g>
</g>
<defs>
<linearGradient id="paint0_linear_244_657" x1="25.5413" y1="22.2866" x2="25.5413" y2="44.964" gradientUnits="userSpaceOnUse">
<stop stop-color="#FBB24A"/>
<stop offset="0.51" stop-color="#F79633"/>
<stop offset="0.83" stop-color="#F1613A"/>
<stop offset="1" stop-color="#ED3237"/>
</linearGradient>
<clipPath id="clip0_244_657">
<rect width="52" height="51.7842" fill="white"/>
</clipPath>
</defs>
</svg>
